<?xml version="1.0" standalone="no"?>
<!DOCTYPE svg PUBLIC "-//W3C//DTD SVG 20010904//EN"
 "http://www.w3.org/TR/2001/REC-SVG-20010904/DTD/svg10.dtd">
<svg version="1.0" xmlns="http://www.w3.org/2000/svg"
 width="512.000000pt" height="512.000000pt" viewBox="0 0 512.000000 512.000000"
 preserveAspectRatio="xMidYMid meet">
<metadata>
Created by potrace 1.11, written by Peter Selinger 2001-2013
</metadata>
<g transform="translate(0.000000,512.000000) scale(0.100000,-0.100000)"
fill="#000000" stroke="none">
<path d="M570 5049 c-67 -13 -147 -47 -220 -94 -121 -79 -207 -190 -257 -332
l-28 -78 0 -1985 0 -1985 24 -69 c77 -226 266 -393 492 -436 33 -6 762 -10
1978 -10 1647 0 1936 2 1996 15 179 37 355 174 434 337 76 158 71 -13 68 2178
l-2 1965 -29 75 c-61 159 -179 292 -318 359 -158 76 -11 71 -2165 70 -1062 -1
-1948 -5 -1973 -10z"/>
</g>
</svg>
